<?xml version="1.0" encoding="UTF-8" standalone="no"?>
<!-- Created with Inkscape (http://www.inkscape.org/) -->

<svg
   width="210mm"
   height="297mm"
   viewBox="0 0 210 297"
   version="1.1"
   id="svg13832"
   inkscape:version="1.2.2 (1:1.2.2+202212051552+b0a8486541)"
   sodipodi:docname="star-logo.svg"
   xmlns:inkscape="http://www.inkscape.org/namespaces/inkscape"
   xmlns:sodipodi="http://sodipodi.sourceforge.net/DTD/sodipodi-0.dtd"
   xmlns="http://www.w3.org/2000/svg"
   xmlns:svg="http://www.w3.org/2000/svg">
  <sodipodi:namedview
     id="namedview13834"
     pagecolor="#ffffff"
     bordercolor="#000000"
     borderopacity="0.25"
     inkscape:showpageshadow="2"
     inkscape:pageopacity="0.0"
     inkscape:pagecheckerboard="0"
     inkscape:deskcolor="#d1d1d1"
     inkscape:document-units="mm"
     showgrid="false"
     inkscape:zoom="2.8266927"
     inkscape:cx="374.81966"
     inkscape:cy="243.57087"
     inkscape:window-width="1920"
     inkscape:window-height="1066"
     inkscape:window-x="0"
     inkscape:window-y="27"
     inkscape:window-maximized="1"
     inkscape:current-layer="layer4" />
  <defs
     id="defs13829" />
  <g
     inkscape:label="Layer 1"
     inkscape:groupmode="layer"
     id="layer1">
    <path
       style="fill:#4e2a84;fill-opacity:1;stroke:none;stroke-width:4.27763;stroke-linecap:square;stroke-dasharray:none;stroke-opacity:1"
       d="m 97.454,88.022017 -4.859135,3.521749 a 25.050604,25.050604 0 0 0 10.328055,2.244824 25.050604,25.050604 0 0 0 10.32805,-2.244824 l -4.85914,-3.521749 a 20.060165,20.060165 0 0 1 -5.46891,0.77618 20.060165,20.060165 0 0 1 -5.46892,-0.77618 z"
       id="path28455" />
    <path
       style="fill:#4e2a84;fill-opacity:1;stroke:none;stroke-width:4.27763;stroke-linecap:square;stroke-dasharray:none;stroke-opacity:1"
       d="m 78.043815,65.964449 a 25.050604,25.050604 0 0 0 -0.171566,2.773991 25.050604,25.050604 0 0 0 6.549988,16.878556 l 1.847949,-5.709212 A 20.060165,20.060165 0 0 1 82.894165,69.49705 Z"
       id="path28453" />
    <path
       style="fill:#4e2a84;fill-opacity:1;stroke:none;stroke-width:4.27763;stroke-linecap:square;stroke-dasharray:none;stroke-opacity:1"
       d="m 127.81649,65.953597 -4.86482,3.543453 a 20.060165,20.060165 0 0 1 -3.37602,10.410734 l 1.84795,5.709212 a 25.050604,25.050604 0 0 0 6.54998,-16.878556 25.050604,25.050604 0 0 0 -0.15709,-2.784843 z"
       id="path28451" />
    <path
       style="fill:#4e2a84;fill-opacity:1;stroke:none;stroke-width:4.27763;stroke-linecap:square;stroke-dasharray:none;stroke-opacity:1"
       d="M 97.874129,44.216423 A 25.050604,25.050604 0 0 0 81.151636,56.358834 l 5.996016,-0.0072 a 20.060165,20.060165 0 0 1 8.865609,-6.432165 z"
       id="path28449" />
    <path
       style="fill:#4e2a84;fill-opacity:1;stroke:none;stroke-width:4.27763;stroke-linecap:square;stroke-dasharray:none;stroke-opacity:1"
       d="m 107.96705,44.201436 1.86035,5.704045 a 20.060165,20.060165 0 0 1 8.87285,6.446118 l 5.9986,0.0072 a 25.050604,25.050604 0 0 0 -16.7318,-12.157398 z"
       id="path22259" />
  </g>
  <g
     inkscape:groupmode="layer"
     id="layer3"
     inkscape:label="Layer 2" />
  <g
     inkscape:groupmode="layer"
     id="layer4"
     inkscape:label="Layer 3">
    <path
       sodipodi:type="star"
       style="fill:#00b140;fill-opacity:1;stroke:none;stroke-width:1.57996403;stroke-linecap:square;stroke-dasharray:none;stroke-opacity:1;paint-order:normal;stroke-miterlimit:4;stroke-linejoin:miter"
       id="path15653-3"
       inkscape:flatsided="false"
       sodipodi:sides="5"
       sodipodi:cx="92.146111"
       sodipodi:cy="43.301811"
       sodipodi:r1="25.674416"
       sodipodi:r2="9.8333015"
       sodipodi:arg1="1.5707963"
       sodipodi:arg2="2.1991148"
       inkscape:rounded="0"
       inkscape:randomized="0"
       d="M 92.146111,68.976227 86.366241,51.25712 67.72829,51.235643 82.794085,40.263154 77.055067,22.530773 92.14611,33.46851 l 15.09104,-10.937738 -5.73901,17.732381 15.06579,10.972488 -18.637949,0.02148 z"
       inkscape:transform-center-x="1.56638e-05"
       transform="matrix(-1.2658516,0,0,-1.2658516,219.56611,123.5519)"
       inkscape:transform-center-y="-3.1034689" />
  </g>
</svg>
